<?xml version="1.0" encoding="UTF-8" standalone="no"?>
<!-- Created with Inkscape (http://www.inkscape.org/) -->

<svg
   width="200mm"
   height="215mm"
   viewBox="0 0 200 215"
   version="1.1"
   id="svg360"
   inkscape:version="1.2.2 (732a01da63, 2022-12-09)"
   sodipodi:docname="support_boitier_RTK.svg"
   xmlns:inkscape="http://www.inkscape.org/namespaces/inkscape"
   xmlns:sodipodi="http://sodipodi.sourceforge.net/DTD/sodipodi-0.dtd"
   xmlns="http://www.w3.org/2000/svg"
   xmlns:svg="http://www.w3.org/2000/svg">
  <sodipodi:namedview
     id="namedview362"
     pagecolor="#ffffff"
     bordercolor="#666666"
     borderopacity="1.0"
     inkscape:showpageshadow="2"
     inkscape:pageopacity="0.0"
     inkscape:pagecheckerboard="0"
     inkscape:deskcolor="#d1d1d1"
     inkscape:document-units="mm"
     showgrid="true"
     showguides="true"
     inkscape:zoom="1"
     inkscape:cx="365"
     inkscape:cy="337"
     inkscape:window-width="1280"
     inkscape:window-height="961"
     inkscape:window-x="-8"
     inkscape:window-y="-8"
     inkscape:window-maximized="1"
     inkscape:current-layer="layer1">
    <inkscape:grid
       type="xygrid"
       id="grid535"
       originx="0"
       originy="0" />
  </sodipodi:namedview>
  <defs
     id="defs357" />
  <g
     inkscape:label="Calque 1"
     inkscape:groupmode="layer"
     id="layer1">
    <path
       style="fill:none;fill-rule:evenodd;stroke:#ff0000;stroke-width:0.1;stroke-linecap:butt;stroke-linejoin:miter;stroke-dasharray:none;stroke-opacity:1"
       d="M 147.50301,125 V 65 h -20 v 10 h -3 V 65 h -7 V 75.085685 L 72.50302,74.914316 V 65 h -7 v 10 h -3 V 65 h -20 v 60 h 9.75 l 1.25,-40 h 82.99999 l 1.25,40 z"
       id="path791"
       sodipodi:nodetypes="ccccccccccccccccccccc" />
    <path
       style="fill:none;fill-rule:evenodd;stroke:#ff0000;stroke-width:0.1;stroke-linecap:butt;stroke-linejoin:miter;stroke-dasharray:none;stroke-opacity:1"
       d="m 172.50301,130 -1.25,40 -16.25,0.096 V 180 h -3 V 170 H 68.00302 v 10 h -3 v -10 h -16.25 l -1.25,-40 h -12.5 v 80 h 149.99999 v -80 z"
       id="path1747"
       sodipodi:nodetypes="ccccccccccccccccc" />
    <path
       style="fill:none;fill-rule:evenodd;stroke:#ff0000;stroke-width:0.1;stroke-linecap:butt;stroke-linejoin:miter;stroke-dasharray:none;stroke-opacity:1"
       d="m 32.503,100 1.25,-39.952 16.25002,-0.096 V 50 h 3 v 10.048 h 83.99999 V 50 h 3 V 60.048 H 156.253 l 1.25,39.952 h 37.50001 l -5,-80 H 10.00302 l -5,80 z"
       id="path1757"
       sodipodi:nodetypes="ccccccccccccccccc" />
    <path
       style="fill:none;fill-rule:evenodd;stroke:#ff0000;stroke-width:0.1;stroke-linecap:butt;stroke-linejoin:miter;stroke-dasharray:none;stroke-opacity:1"
       d="m 57.50302,105 v 60 h 20 v -10 h 3 v 10 h 7 v -10.08569 l 44.99999,0.17137 V 165 h 7 v -10 h 3 v 10 h 20 v -60 h -9.75 l -1.25,40 H 68.50302 l -1.25,-40 z"
       id="path1759"
       sodipodi:nodetypes="ccccccccccccccccccccc" />
    <text
       xml:space="preserve"
       style="font-style:normal;font-variant:normal;font-weight:normal;font-stretch:normal;font-size:4.9389px;line-height:125%;font-family:Arial;-inkscape-font-specification:Arial;letter-spacing:0px;word-spacing:0px;fill:#000000;fill-opacity:1;stroke:none;stroke-width:0.264583px;stroke-linecap:butt;stroke-linejoin:miter;stroke-opacity:1"
       x="58.706463"
       y="194.3611"
       id="text19325"><tspan
         sodipodi:role="line"
         style="stroke-width:0.264583px"
         x="58.706463"
         y="194.3611"
         id="tspan19327">https://github.com/Eric-FR/F9x_RAWX_Logger</tspan></text>
  </g>
</svg>
